<svg width="48" height="696" viewBox="0 0 48 696" fill="none" xmlns="http://www.w3.org/2000/svg">
<rect width="24" height="24" transform="matrix(-1 0 0 1 48 0)" fill="#FFBADD"/>
<rect width="24" height="24" transform="matrix(-1 0 0 1 24 24)" fill="#FFBADD"/>
<rect width="24" height="24" transform="matrix(-1 0 0 1 24 72)" fill="#FFBADD"/>
<rect width="24" height="24" transform="matrix(-1 0 0 1 48 48)" fill="#FFBADD"/>
<rect width="24" height="24" transform="matrix(-1 0 0 1 48 96)" fill="#FFBADD"/>
<rect width="24" height="24" transform="matrix(-1 0 0 1 24 120)" fill="#FFBADD"/>
<rect width="24" height="24" transform="matrix(-1 0 0 1 48 144)" fill="#FFBADD"/>
<rect width="24" height="24" transform="matrix(-1 0 0 1 24 168)" fill="#FFBADD"/>
<rect width="24" height="24" transform="matrix(-1 0 0 1 48 192)" fill="#FFBADD"/>
<rect width="24" height="24" transform="matrix(-1 0 0 1 24 216)" fill="#FFBADD"/>
<rect width="24" height="24" transform="matrix(-1 0 0 1 24 264)" fill="#FFBADD"/>
<rect width="24" height="24" transform="matrix(-1 0 0 1 48 240)" fill="#FFBADD"/>
<rect width="24" height="24" transform="matrix(-1 0 0 1 48 288)" fill="#FFBADD"/>
<rect width="24" height="24" transform="matrix(-1 0 0 1 24 312)" fill="#FFBADD"/>
<rect width="24" height="24" transform="matrix(-1 0 0 1 48 336)" fill="#FFBADD"/>
<rect width="24" height="24" transform="matrix(-1 0 0 1 24 360)" fill="#FFBADD"/>
<rect width="24" height="24" transform="matrix(-1 0 0 1 48 384)" fill="#FFBADD"/>
<rect width="24" height="24" transform="matrix(-1 0 0 1 24 408)" fill="#FFBADD"/>
<rect width="24" height="24" transform="matrix(-1 0 0 1 24 456)" fill="#FFBADD"/>
<rect width="24" height="24" transform="matrix(-1 0 0 1 48 432)" fill="#FFBADD"/>
<rect width="24" height="24" transform="matrix(-1 0 0 1 48 480)" fill="#FFBADD"/>
<rect width="24" height="24" transform="matrix(-1 0 0 1 24 504)" fill="#FFBADD"/>
<rect width="24" height="24" transform="matrix(-1 0 0 1 24 552)" fill="#FFBADD"/>
<rect width="24" height="24" transform="matrix(-1 0 0 1 48 528)" fill="#FFBADD"/>
<rect width="24" height="24" transform="matrix(-1 0 0 1 48 576)" fill="#FFBADD"/>
<rect width="24" height="24" transform="matrix(-1 0 0 1 24 600)" fill="#FFBADD"/>
<rect width="24" height="24" transform="matrix(-1 0 0 1 24 648)" fill="#FFBADD"/>
<rect width="24" height="24" transform="matrix(-1 0 0 1 48 624)" fill="#FFBADD"/>
<rect width="24" height="24" transform="matrix(-1 0 0 1 48 672)" fill="#FFBADD"/>
</svg>
