<svg width="48" height="768" viewBox="0 0 48 768" fill="none" xmlns="http://www.w3.org/2000/svg">
<rect width="24" height="24" fill="#FFBADD"/>
<rect x="24" y="24" width="24" height="24" fill="#FFBADD"/>
<rect x="24" y="72" width="24" height="24" fill="#FFBADD"/>
<rect y="48" width="24" height="24" fill="#FFBADD"/>
<rect y="96" width="24" height="24" fill="#FFBADD"/>
<rect x="24" y="120" width="24" height="24" fill="#FFBADD"/>
<rect y="144" width="24" height="24" fill="#FFBADD"/>
<rect x="24" y="168" width="24" height="24" fill="#FFBADD"/>
<rect y="192" width="24" height="24" fill="#FFBADD"/>
<rect x="24" y="216" width="24" height="24" fill="#FFBADD"/>
<rect x="24" y="264" width="24" height="24" fill="#FFBADD"/>
<rect y="240" width="24" height="24" fill="#FFBADD"/>
<rect y="288" width="24" height="24" fill="#FFBADD"/>
<rect x="24" y="312" width="24" height="24" fill="#FFBADD"/>
<rect y="336" width="24" height="24" fill="#FFBADD"/>
<rect x="24" y="360" width="24" height="24" fill="#FFBADD"/>
<rect y="384" width="24" height="24" fill="#FFBADD"/>
<rect x="24" y="408" width="24" height="24" fill="#FFBADD"/>
<rect x="24" y="456" width="24" height="24" fill="#FFBADD"/>
<rect y="432" width="24" height="24" fill="#FFBADD"/>
<rect y="480" width="24" height="24" fill="#FFBADD"/>
<rect x="24" y="504" width="24" height="24" fill="#FFBADD"/>
<rect x="24" y="552" width="24" height="24" fill="#FFBADD"/>
<rect y="528" width="24" height="24" fill="#FFBADD"/>
<rect y="576" width="24" height="24" fill="#FFBADD"/>
<rect x="24" y="600" width="24" height="24" fill="#FFBADD"/>
<rect x="24" y="648" width="24" height="24" fill="#FFBADD"/>
<rect y="624" width="24" height="24" fill="#FFBADD"/>
<rect x="24" y="696" width="24" height="24" fill="#FFBADD"/>
<rect y="672" width="24" height="24" fill="#FFBADD"/>
<rect x="24" y="744" width="24" height="24" fill="#FFBADD"/>
<rect y="720" width="24" height="24" fill="#FFBADD"/>
</svg>
