<svg width="34" height="35" viewBox="0 0 34 35" fill="none" xmlns="http://www.w3.org/2000/svg">
<g clip-path="url(#clip0_381_246)">
<path d="M6.67674 10.5981L6.32824 11.3999C6.27378 11.5305 6.18189 11.642 6.06417 11.7205C5.94644 11.7989 5.80813 11.8408 5.66666 11.8408C5.52518 11.8408 5.38688 11.7989 5.26915 11.7205C5.15142 11.642 5.05954 11.5305 5.00507 11.3999L4.65657 10.5981C4.04384 9.17959 2.9217 8.04229 1.51157 7.41057L0.436324 6.93032C0.305875 6.87031 0.195368 6.77416 0.117904 6.65326C0.0404402 6.53236 -0.000732422 6.39178 -0.000732422 6.24819C-0.000732422 6.1046 0.0404402 5.96403 0.117904 5.84313C0.195368 5.72223 0.305875 5.62607 0.436324 5.56607L1.45207 5.11415C2.89764 4.46444 4.03899 3.28507 4.64099 1.81898L5.00082 0.9534C5.05347 0.819318 5.14528 0.704206 5.2643 0.623069C5.38332 0.541932 5.52403 0.498535 5.66807 0.498535C5.81212 0.498535 5.95282 0.541932 6.07185 0.623069C6.19087 0.704206 6.28268 0.819318 6.33532 0.9534L6.69374 1.81757C7.2951 3.28392 8.43594 4.4638 9.88124 5.11415L10.8984 5.56748C11.0285 5.62766 11.1386 5.7238 11.2157 5.84455C11.2929 5.96529 11.3339 6.1056 11.3339 6.2489C11.3339 6.3922 11.2929 6.53251 11.2157 6.65325C11.1386 6.774 11.0285 6.87014 10.8984 6.93032L9.82174 7.40915C8.41189 8.0415 7.29026 9.17931 6.67816 10.5981M8.97457 22.9046C9.22391 22.0801 9.50299 21.2627 9.83166 20.3801C12.7443 12.5502 17.595 7.69957 25.5198 6.47132C24.7931 8.09057 24.106 9.21682 23.4982 9.82457L22.0802 11.2441L20.077 13.2501L22.1397 15.3099C20.5388 18.2637 17.3754 20.6153 13.8153 21.0602C11.9496 21.2939 10.3317 21.9201 8.97316 22.9061M25.5 14.6625L24.0833 13.2458L25.5042 11.8249C26.92 10.4073 28.3352 7.57537 29.75 3.32915C8.94057 3.32915 5.79274 22.3479 4.34066 31.1185L4.24999 31.6625H7.08049C8.02399 26.9403 10.386 24.343 14.1667 23.8708C19.8333 23.1625 24.0833 18.9125 25.5 14.6625Z" fill="#403230"/>
</g>
<defs>
<clipPath id="clip0_381_246">
<rect width="34" height="34" fill="white" transform="translate(0 0.5)"/>
</clipPath>
</defs>
</svg>
