<svg width="159" height="154" viewBox="0 0 159 154" fill="none" xmlns="http://www.w3.org/2000/svg">
<path d="M78.0833 47.8333V45H80.9167V47.8333H83.75V50.6667H86.5833V53.5H83.75V50.6667H80.9167V64.8333H78.0833V50.6667H75.25V53.5H72.4167V50.6667H75.25V47.8333H78.0833ZM66.75 62V70.5H92.25V62H89.4167V67.6667H69.5833V62H66.75Z" fill="#403230"/>
<path d="M41.4606 91.938C41.3566 91.99 41.2656 91.977 41.1876 91.899L40.8236 91.535C40.7542 91.4657 40.7629 91.4007 40.8496 91.34C41.3002 91.08 41.7076 90.755 42.0716 90.365C42.4442 89.9663 42.7432 89.5287 42.9686 89.052C43.2026 88.5753 43.3326 88.0943 43.3586 87.609H44.4376C44.4116 88.1463 44.2642 88.6923 43.9956 89.247C43.7356 89.793 43.3846 90.3043 42.9426 90.781C42.5092 91.249 42.0152 91.6347 41.4606 91.938ZM45.6986 91.808C45.5859 91.808 45.4949 91.7647 45.4256 91.678C45.2609 91.47 45.0616 91.249 44.8276 91.015C44.6022 90.7723 44.3596 90.547 44.0996 90.339C43.8482 90.1223 43.5969 89.9533 43.3456 89.832L43.5926 89.208C43.8959 89.3207 44.2036 89.468 44.5156 89.65C44.8362 89.8233 45.1266 90.014 45.3866 90.222C45.6552 90.43 45.8719 90.6293 46.0366 90.82C46.2012 91.002 46.2836 91.1537 46.2836 91.275C46.2836 91.4137 46.2272 91.535 46.1146 91.639C46.0106 91.7343 45.8719 91.7907 45.6986 91.808ZM41.4996 88.103C41.3869 88.1117 41.3176 88.0597 41.2916 87.947L41.1096 87.245C41.1009 87.1757 41.1052 87.1323 41.1226 87.115C41.1399 87.089 41.1789 87.0803 41.2396 87.089C41.5602 87.115 41.9286 87.1367 42.3446 87.154C42.7692 87.1627 43.2069 87.167 43.6576 87.167C44.1169 87.167 44.5546 87.1627 44.9706 87.154C45.3952 87.1367 45.7636 87.115 46.0756 87.089L45.4516 87.206L46.0236 86.881C46.1189 86.8203 46.1969 86.8377 46.2576 86.933C46.3182 87.037 46.3832 87.1713 46.4526 87.336C46.5219 87.5007 46.5912 87.674 46.6606 87.856C46.7039 87.9513 46.7082 88.012 46.6736 88.038C46.6476 88.064 46.5349 88.0727 46.3356 88.064C45.8156 88.0293 45.2566 88.012 44.6586 88.012C44.0692 88.0033 43.4972 88.0077 42.9426 88.025C42.3879 88.0337 41.9069 88.0597 41.4996 88.103ZM43.3456 85.854C43.3369 85.7413 43.3889 85.6807 43.5016 85.672L44.2946 85.607C44.4072 85.5983 44.4592 85.6503 44.4506 85.763L44.3856 87.362H43.4236L43.3456 85.854ZM47.8046 89.13V88.22H50.1186V89.13H47.8046ZM49.7676 92.237C49.6549 92.2457 49.5986 92.1937 49.5986 92.081V85.685L49.5856 85.321C49.5856 85.2517 49.5986 85.2083 49.6246 85.191C49.6506 85.165 49.6939 85.152 49.7546 85.152H50.7816C50.8942 85.152 50.9332 85.204 50.8986 85.308C50.8639 85.3773 50.8249 85.4467 50.7816 85.516C50.7469 85.5853 50.7079 85.6547 50.6646 85.724V91.886C50.6646 91.9987 50.6342 92.0767 50.5736 92.12C50.5129 92.1633 50.3742 92.1937 50.1576 92.211L49.7676 92.237ZM47.3366 92.237C47.2239 92.2457 47.1676 92.1937 47.1676 92.081V85.958L47.1546 85.594C47.1546 85.4813 47.2109 85.425 47.3236 85.425H48.1816C48.3029 85.425 48.3506 85.477 48.3246 85.581C48.3159 85.6503 48.3029 85.7197 48.2856 85.789C48.2682 85.8583 48.2509 85.9277 48.2336 85.997V91.886C48.2336 91.9987 48.2032 92.0767 48.1426 92.12C48.0819 92.1633 47.9432 92.1937 47.7266 92.211L47.3366 92.237ZM43.4626 93.94C43.3499 93.9487 43.2762 93.901 43.2416 93.797L43.0336 93.069C43.0162 93.0083 43.0162 92.9693 43.0336 92.952C43.0509 92.926 43.0899 92.913 43.1506 92.913C44.2946 92.913 45.4342 92.913 46.5696 92.913C47.7049 92.913 48.8446 92.913 49.9886 92.913L49.9496 93.784C48.7622 93.7927 47.6399 93.81 46.5826 93.836C45.5339 93.862 44.4939 93.8967 43.4626 93.94ZM49.7286 96.904C49.6159 96.904 49.5596 96.8477 49.5596 96.735V93.329L49.5726 92.939L49.7286 92.783C49.8066 92.705 49.8976 92.6877 50.0016 92.731C50.1056 92.7743 50.2226 92.835 50.3526 92.913C50.4912 92.991 50.6212 93.0777 50.7426 93.173C50.8292 93.2423 50.8336 93.316 50.7556 93.394L50.6386 93.498V96.488C50.6386 96.6007 50.6082 96.683 50.5476 96.735C50.4869 96.787 50.3482 96.8303 50.1316 96.865C50.0709 96.8737 50.0059 96.878 49.9366 96.878C49.8672 96.8867 49.7979 96.8953 49.7286 96.904ZM58.7861 90.638C58.7255 90.6207 58.6821 90.5947 58.6561 90.56C58.6388 90.5253 58.6345 90.4777 58.6431 90.417C58.6778 90.0703 58.6821 89.689 58.6561 89.273C58.6301 88.857 58.5738 88.4887 58.4871 88.168C58.4525 88.064 58.4871 87.9947 58.5911 87.96L58.9811 87.83C59.0851 87.7953 59.1675 87.8257 59.2281 87.921C59.3668 88.155 59.4838 88.4063 59.5791 88.675C59.6745 88.935 59.7481 89.1907 59.8001 89.442C59.8521 89.6933 59.8738 89.9273 59.8651 90.144C59.8565 90.2653 59.8218 90.3693 59.7611 90.456C59.7091 90.534 59.6355 90.5947 59.5401 90.638C59.4448 90.6813 59.3321 90.703 59.2021 90.703C59.0721 90.703 58.9335 90.6813 58.7861 90.638ZM62.6471 91.028C62.7685 90.716 62.8595 90.391 62.9201 90.053C62.9808 89.715 63.0198 89.3813 63.0371 89.052C63.0545 88.714 63.0545 88.3977 63.0371 88.103C63.0285 87.9903 63.0761 87.9123 63.1801 87.869C63.3621 87.8083 63.5311 87.7823 63.6871 87.791C63.8431 87.791 63.9688 87.8213 64.0641 87.882C64.1681 87.9427 64.2245 88.0337 64.2331 88.155C64.2505 88.3457 64.2461 88.558 64.2201 88.792C64.1941 89.0173 64.1465 89.2557 64.0771 89.507C64.0078 89.7583 63.9168 90.014 63.8041 90.274C63.6915 90.5253 63.5528 90.7723 63.3881 91.015L62.6471 91.028ZM57.3691 87.505C57.2565 87.505 57.1871 87.4487 57.1611 87.336L56.9661 86.569C56.9575 86.4997 56.9618 86.4563 56.9791 86.439C56.9965 86.413 57.0355 86.4043 57.0961 86.413C57.4255 86.4303 57.8588 86.4477 58.3961 86.465C58.9335 86.4737 59.5141 86.4823 60.1381 86.491C60.7708 86.491 61.3991 86.491 62.0231 86.491C62.6558 86.4823 63.2408 86.4737 63.7781 86.465C64.3155 86.4477 64.7488 86.426 65.0781 86.4L64.4541 86.53L65.0001 86.218C65.0521 86.1833 65.0911 86.1747 65.1171 86.192C65.1518 86.2007 65.1865 86.2353 65.2211 86.296L65.6761 87.245C65.7281 87.3403 65.7368 87.4053 65.7021 87.44C65.6761 87.466 65.5635 87.4747 65.3641 87.466C64.9568 87.4573 64.4715 87.453 63.9081 87.453C63.3535 87.453 62.7641 87.4573 62.1401 87.466C61.5248 87.466 60.9138 87.4703 60.3071 87.479C59.7005 87.479 59.1415 87.4833 58.6301 87.492C58.1188 87.492 57.6985 87.4963 57.3691 87.505ZM57.3691 91.678C57.2565 91.6867 57.1871 91.6347 57.1611 91.522L56.9661 90.781C56.9575 90.7117 56.9618 90.6683 56.9791 90.651C56.9965 90.625 57.0355 90.6163 57.0961 90.625C57.4341 90.6423 57.8718 90.6597 58.4091 90.677C58.9465 90.6857 59.5315 90.69 60.1641 90.69C60.7968 90.69 61.4295 90.69 62.0621 90.69C62.7035 90.6813 63.2971 90.6727 63.8431 90.664C64.3978 90.6467 64.8528 90.6293 65.2081 90.612L64.5711 90.729L65.1691 90.391C65.2211 90.3563 65.2601 90.3433 65.2861 90.352C65.3208 90.3607 65.3511 90.3953 65.3771 90.456L65.8191 91.431C65.8625 91.5263 65.8668 91.5913 65.8321 91.626C65.8061 91.652 65.6935 91.6607 65.4941 91.652C64.8788 91.6347 64.2028 91.6217 63.4661 91.613C62.7381 91.6043 62.0015 91.6 61.2561 91.6C60.5108 91.6 59.8001 91.6087 59.1241 91.626C58.4568 91.6347 57.8718 91.652 57.3691 91.678ZM56.1341 95.37C56.0215 95.37 55.9478 95.318 55.9131 95.214L55.7181 94.525C55.7008 94.4643 55.7008 94.4253 55.7181 94.408C55.7355 94.382 55.7745 94.369 55.8351 94.369C56.2598 94.3863 56.7451 94.3993 57.2911 94.408C57.8458 94.4167 58.4351 94.4253 59.0591 94.434C59.6831 94.4427 60.3201 94.447 60.9701 94.447C61.6201 94.447 62.2615 94.447 62.8941 94.447C63.5268 94.4383 64.1248 94.4297 64.6881 94.421C65.2601 94.4123 65.7715 94.3993 66.2221 94.382L65.6501 94.59L66.2871 94.083C66.3391 94.0397 66.3825 94.0223 66.4171 94.031C66.4518 94.031 66.4865 94.0613 66.5211 94.122C66.6078 94.2607 66.6945 94.4167 66.7811 94.59C66.8678 94.7547 66.9458 94.9237 67.0151 95.097C67.0411 95.1663 67.0498 95.2183 67.0411 95.253C67.0411 95.2877 67.0108 95.3093 66.9501 95.318C66.8981 95.3267 66.8071 95.331 66.6771 95.331C65.9491 95.3223 65.1865 95.318 64.3891 95.318C63.6005 95.3093 62.8075 95.3093 62.0101 95.318C61.2215 95.318 60.4588 95.3223 59.7221 95.331C58.9855 95.331 58.3095 95.3353 57.6941 95.344C57.0875 95.3527 56.5675 95.3613 56.1341 95.37ZM58.8121 94.928L58.7731 92.757L58.7601 92.185C58.7515 92.0723 58.8035 92.016 58.9161 92.016H59.8391C59.9085 92.016 59.9475 92.029 59.9561 92.055C59.9735 92.0723 59.9735 92.1113 59.9561 92.172C59.9475 92.2067 59.9301 92.2413 59.9041 92.276C59.8868 92.3107 59.8651 92.3453 59.8391 92.38L59.8001 94.928H58.8121ZM62.9591 94.928L62.9201 92.757L62.8941 92.185C62.8941 92.0723 62.9505 92.016 63.0631 92.016H63.9861C64.0555 92.016 64.0945 92.029 64.1031 92.055C64.1205 92.0723 64.1205 92.1113 64.1031 92.172C64.0858 92.2067 64.0641 92.2413 64.0381 92.276C64.0208 92.3107 64.0035 92.3453 63.9861 92.38L63.9471 94.928H62.9591ZM68.4411 94.226C68.3544 94.2867 68.2764 94.2823 68.2071 94.213L67.8431 93.836C67.8084 93.7927 67.7911 93.758 67.7911 93.732C67.7911 93.6973 67.8171 93.6627 67.8691 93.628C68.2851 93.3073 68.6881 92.9217 69.0781 92.471C69.4767 92.0117 69.8321 91.5047 70.1441 90.95C70.4647 90.3953 70.7247 89.8017 70.9241 89.169C71.1234 88.5363 71.2361 87.882 71.2621 87.206L72.4061 87.193C72.3801 87.7217 72.2891 88.259 72.1331 88.805C71.9771 89.3423 71.7691 89.8753 71.5091 90.404C71.2577 90.924 70.9674 91.4223 70.6381 91.899C70.3087 92.3757 69.9577 92.8133 69.5851 93.212C69.2124 93.602 68.8311 93.94 68.4411 94.226ZM74.2261 94.109C74.1567 94.109 74.1047 94.1003 74.0701 94.083C74.0354 94.057 73.9964 94.0223 73.9531 93.979C73.7797 93.7103 73.5717 93.4287 73.3291 93.134C73.0951 92.8307 72.8437 92.5317 72.5751 92.237C72.3064 91.9423 72.0377 91.6607 71.7691 91.392C71.5004 91.1233 71.2491 90.8893 71.0151 90.69L71.2881 90.079C71.5481 90.2523 71.8384 90.4603 72.1591 90.703C72.4884 90.937 72.8134 91.1883 73.1341 91.457C73.4634 91.717 73.7667 91.9813 74.0441 92.25C74.3214 92.51 74.5424 92.7527 74.7071 92.978C74.8717 93.2033 74.9541 93.3897 74.9541 93.537C74.9541 93.641 74.9237 93.7363 74.8631 93.823C74.8024 93.9097 74.7157 93.979 74.6031 94.031C74.4991 94.0743 74.3734 94.1003 74.2261 94.109ZM68.7791 87.531C68.6664 87.5397 68.5927 87.4877 68.5581 87.375L68.4151 86.79C68.3891 86.7207 68.3847 86.6773 68.4021 86.66C68.4194 86.634 68.4584 86.6253 68.5191 86.634C68.8397 86.6513 69.1951 86.6687 69.5851 86.686C69.9837 86.6947 70.4041 86.7033 70.8461 86.712C71.2881 86.712 71.7301 86.712 72.1721 86.712C72.6141 86.7033 73.0387 86.6947 73.4461 86.686C73.8534 86.6687 74.2217 86.6513 74.5511 86.634L73.9401 86.738L74.5121 86.452C74.5727 86.426 74.6161 86.4217 74.6421 86.439C74.6681 86.4477 74.6984 86.478 74.7331 86.53C74.7937 86.6427 74.8501 86.764 74.9021 86.894C74.9541 87.024 74.9974 87.154 75.0321 87.284C75.0494 87.3533 75.0537 87.4053 75.0451 87.44C75.0364 87.4747 75.0017 87.4963 74.9411 87.505C74.8891 87.5137 74.7981 87.518 74.6681 87.518C74.1134 87.5007 73.5501 87.4877 72.9781 87.479C72.4147 87.4703 71.8687 87.466 71.3401 87.466C70.8114 87.466 70.3261 87.4747 69.8841 87.492C69.4507 87.5007 69.0824 87.5137 68.7791 87.531ZM76.6441 96.826C76.5314 96.8347 76.4751 96.7827 76.4751 96.67V85.789L76.4621 85.321C76.4621 85.2083 76.5184 85.152 76.6311 85.152H77.6581C77.7707 85.152 77.8097 85.204 77.7751 85.308C77.7404 85.3773 77.7014 85.4467 77.6581 85.516C77.6234 85.5853 77.5844 85.6547 77.5411 85.724V96.475C77.5411 96.5877 77.5107 96.6657 77.4501 96.709C77.3894 96.7523 77.2507 96.7827 77.0341 96.8L76.6441 96.826ZM84.1286 94.187C84.0766 94.2217 84.0333 94.239 83.9986 94.239C83.9639 94.239 83.9206 94.2217 83.8686 94.187L83.4786 93.836C83.4266 93.7927 83.4006 93.758 83.4006 93.732C83.4006 93.6973 83.4266 93.6583 83.4786 93.615C83.8946 93.225 84.2803 92.7657 84.6356 92.237C84.9996 91.7083 85.3116 91.145 85.5716 90.547C85.8316 89.949 86.0266 89.3467 86.1566 88.74C86.2953 88.1247 86.3473 87.5397 86.3126 86.985L86.2736 86.556C86.2649 86.4433 86.3169 86.3913 86.4296 86.4L87.5866 86.439C87.6993 86.4477 87.7339 86.504 87.6906 86.608L87.5346 87.024C87.5606 87.4833 87.5216 87.9687 87.4176 88.48C87.3223 88.9913 87.1749 89.5113 86.9756 90.04C86.7763 90.56 86.5293 91.0713 86.2346 91.574C85.9486 92.0767 85.6279 92.5533 85.2726 93.004C84.9173 93.446 84.5359 93.8403 84.1286 94.187ZM89.5106 93.875C89.4066 93.8403 89.3329 93.771 89.2896 93.667C89.1943 93.4157 89.0729 93.147 88.9256 92.861C88.7783 92.5663 88.6136 92.2717 88.4316 91.977C88.2583 91.6823 88.0763 91.3963 87.8856 91.119C87.6949 90.8417 87.5086 90.5903 87.3266 90.365C87.1446 90.1397 86.9799 89.9533 86.8326 89.806L87.1316 89.13C87.3656 89.3033 87.6256 89.5373 87.9116 89.832C88.1976 90.118 88.4793 90.43 88.7566 90.768C89.0426 91.106 89.3026 91.444 89.5366 91.782C89.7793 92.12 89.9699 92.4277 90.1086 92.705C90.2559 92.9737 90.3296 93.186 90.3296 93.342C90.3296 93.5413 90.2473 93.693 90.0826 93.797C89.9266 93.8923 89.7359 93.9183 89.5106 93.875ZM91.6556 96.826C91.5429 96.8347 91.4866 96.7827 91.4866 96.67V85.789V85.321C91.4779 85.2083 91.5299 85.152 91.6426 85.152H92.6696C92.7823 85.152 92.8213 85.204 92.7866 85.308C92.7519 85.3773 92.7129 85.4467 92.6696 85.516C92.6349 85.5853 92.5959 85.6547 92.5526 85.724V96.475C92.5526 96.5877 92.5223 96.6657 92.4616 96.709C92.4009 96.7523 92.2623 96.7827 92.0456 96.8L91.6556 96.826ZM92.0716 91.353V90.521H93.6706L94.0996 90.274C94.2036 90.2133 94.2773 90.235 94.3206 90.339C94.3813 90.4603 94.4333 90.6077 94.4766 90.781C94.5286 90.9457 94.5676 91.1017 94.5936 91.249C94.6196 91.3617 94.5763 91.418 94.4636 91.418L92.0716 91.353ZM96.1885 91.99C96.0845 92.0333 95.9935 92.016 95.9155 91.938L95.5515 91.6C95.5082 91.5567 95.4865 91.522 95.4865 91.496C95.4865 91.4613 95.5169 91.431 95.5775 91.405C95.9762 91.171 96.3619 90.8893 96.7345 90.56C97.1072 90.222 97.4409 89.858 97.7355 89.468C98.0389 89.0693 98.2815 88.6533 98.4635 88.22C98.6542 87.778 98.7582 87.336 98.7755 86.894L99.9455 86.881C99.9195 87.3577 99.7939 87.843 99.5685 88.337C99.3519 88.831 99.0659 89.3077 98.7105 89.767C98.3639 90.2263 97.9695 90.651 97.5275 91.041C97.0942 91.4223 96.6479 91.7387 96.1885 91.99ZM101.636 91.873C101.532 91.899 101.445 91.8687 101.376 91.782C101.22 91.5827 101.033 91.379 100.817 91.171C100.6 90.963 100.362 90.7637 100.102 90.573C99.8502 90.3737 99.5859 90.1917 99.3085 90.027C99.0399 89.8623 98.7712 89.7237 98.5025 89.611L98.7625 89.156C99.0745 89.234 99.3909 89.3423 99.7115 89.481C100.041 89.611 100.353 89.7583 100.648 89.923C100.951 90.0877 101.22 90.2567 101.454 90.43C101.688 90.5947 101.87 90.755 102 90.911C102.138 91.0583 102.208 91.1883 102.208 91.301C102.208 91.4397 102.156 91.561 102.052 91.665C101.948 91.769 101.809 91.8383 101.636 91.873ZM96.3835 87.206C96.2709 87.2147 96.2015 87.1627 96.1755 87.05L96.0065 86.439C95.9892 86.3783 95.9892 86.3393 96.0065 86.322C96.0239 86.296 96.0629 86.2873 96.1235 86.296C96.5655 86.3307 97.0509 86.3567 97.5795 86.374C98.1082 86.3913 98.6412 86.4 99.1785 86.4C99.7245 86.3913 100.24 86.3783 100.726 86.361C101.22 86.335 101.653 86.3047 102.026 86.27L101.402 86.4L101.974 86.166C102.069 86.1227 102.147 86.1487 102.208 86.244C102.268 86.3567 102.325 86.4737 102.377 86.595C102.429 86.7077 102.476 86.829 102.52 86.959C102.546 87.0283 102.554 87.0803 102.546 87.115C102.537 87.1497 102.502 87.1713 102.442 87.18C102.39 87.1887 102.299 87.1887 102.169 87.18C101.744 87.1627 101.272 87.1497 100.752 87.141C100.24 87.1323 99.7159 87.128 99.1785 87.128C98.6499 87.128 98.1429 87.1367 97.6575 87.154C97.1722 87.1627 96.7475 87.18 96.3835 87.206ZM103.989 93.862C103.876 93.8707 103.82 93.8187 103.82 93.706V85.607L103.807 85.321C103.807 85.2083 103.863 85.152 103.976 85.152H104.938C105.05 85.152 105.089 85.204 105.055 85.308C105.02 85.3773 104.981 85.4467 104.938 85.516C104.903 85.5853 104.873 85.6547 104.847 85.724V93.511C104.847 93.6237 104.816 93.7017 104.756 93.745C104.695 93.7883 104.556 93.8187 104.34 93.836L103.989 93.862ZM98.3075 96.839C98.1949 96.8477 98.1385 96.7957 98.1385 96.683V93.602L98.0735 93.043C98.0475 92.9303 98.0952 92.874 98.2165 92.874H99.2695C99.3822 92.874 99.4169 92.926 99.3735 93.03C99.3475 93.0907 99.3215 93.1513 99.2955 93.212C99.2695 93.2727 99.2392 93.3333 99.2045 93.394V96.462C99.2045 96.5747 99.1742 96.6527 99.1135 96.696C99.0529 96.748 98.9142 96.7827 98.6975 96.8L98.3075 96.839ZM98.9445 95.669C99.1525 95.6777 99.4385 95.6863 99.8025 95.695C100.175 95.7037 100.587 95.708 101.038 95.708C101.488 95.708 101.948 95.7037 102.416 95.695C102.892 95.6863 103.339 95.6733 103.755 95.656C104.179 95.6387 104.539 95.6213 104.834 95.604L104.171 95.955L104.964 95.37C105.05 95.3007 105.133 95.305 105.211 95.383C105.332 95.513 105.436 95.656 105.523 95.812C105.618 95.968 105.696 96.1197 105.757 96.267C105.8 96.371 105.804 96.436 105.77 96.462C105.735 96.4967 105.618 96.5227 105.419 96.54C105.011 96.5573 104.556 96.5703 104.054 96.579C103.56 96.5877 103.053 96.592 102.533 96.592C102.021 96.592 101.527 96.5877 101.051 96.579C100.583 96.579 100.167 96.5703 99.8025 96.553C99.4472 96.5443 99.1742 96.5313 98.9835 96.514L98.9445 95.669ZM112.941 89.039C112.465 89.039 112.001 89 111.55 88.922C111.1 88.8353 110.697 88.7097 110.341 88.545C109.986 88.3803 109.7 88.181 109.483 87.947C109.275 87.713 109.171 87.44 109.171 87.128C109.171 86.816 109.275 86.543 109.483 86.309C109.7 86.075 109.986 85.88 110.341 85.724C110.697 85.5593 111.1 85.438 111.55 85.36C112.001 85.2733 112.465 85.23 112.941 85.23C113.418 85.23 113.882 85.2733 114.332 85.36C114.783 85.438 115.186 85.5593 115.541 85.724C115.897 85.88 116.178 86.075 116.386 86.309C116.603 86.543 116.711 86.816 116.711 87.128C116.711 87.44 116.603 87.713 116.386 87.947C116.178 88.181 115.897 88.3803 115.541 88.545C115.186 88.7097 114.783 88.8353 114.332 88.922C113.882 89 113.418 89.039 112.941 89.039ZM112.941 88.181C113.418 88.181 113.86 88.1507 114.267 88.09C114.675 88.0207 115.004 87.9123 115.255 87.765C115.507 87.609 115.632 87.3967 115.632 87.128C115.632 86.8593 115.507 86.6513 115.255 86.504C115.004 86.348 114.675 86.2353 114.267 86.166C113.86 86.0967 113.418 86.062 112.941 86.062C112.473 86.062 112.031 86.0967 111.615 86.166C111.208 86.2353 110.879 86.348 110.627 86.504C110.376 86.6513 110.25 86.8593 110.25 87.128C110.25 87.3967 110.376 87.609 110.627 87.765C110.879 87.9123 111.208 88.0207 111.615 88.09C112.031 88.1507 112.473 88.181 112.941 88.181ZM107.702 90.846C107.59 90.846 107.516 90.794 107.481 90.69L107.286 90.027C107.269 89.9663 107.269 89.9273 107.286 89.91C107.304 89.884 107.343 89.871 107.403 89.871C107.837 89.8883 108.326 89.9013 108.872 89.91C109.427 89.9187 110.016 89.9273 110.64 89.936C111.264 89.9447 111.901 89.949 112.551 89.949C113.201 89.949 113.843 89.949 114.475 89.949C115.108 89.9403 115.71 89.9317 116.282 89.923C116.854 89.9143 117.366 89.9013 117.816 89.884L117.231 90.079L117.868 89.585C117.92 89.5417 117.959 89.5243 117.985 89.533C118.02 89.533 118.055 89.5633 118.089 89.624C118.185 89.7627 118.271 89.9143 118.349 90.079C118.427 90.2437 118.501 90.4127 118.57 90.586C118.605 90.6467 118.618 90.6943 118.609 90.729C118.609 90.7637 118.579 90.7853 118.518 90.794C118.466 90.8027 118.375 90.807 118.245 90.807C117.526 90.7983 116.768 90.794 115.97 90.794C115.182 90.7853 114.393 90.7853 113.604 90.794C112.816 90.794 112.053 90.7983 111.316 90.807C110.58 90.807 109.899 90.8113 109.275 90.82C108.66 90.8287 108.136 90.8373 107.702 90.846ZM109.925 95.838C110.125 95.864 110.437 95.8813 110.861 95.89C111.295 95.8987 111.78 95.8987 112.317 95.89C112.863 95.8813 113.414 95.8683 113.968 95.851C114.523 95.8423 115.034 95.825 115.502 95.799C115.979 95.7817 116.356 95.76 116.633 95.734L115.58 96.306L116.555 95.565C116.642 95.4957 116.724 95.5 116.802 95.578C116.906 95.6907 117.002 95.812 117.088 95.942C117.175 96.0807 117.249 96.2237 117.309 96.371C117.335 96.4403 117.344 96.4923 117.335 96.527C117.335 96.5617 117.305 96.5833 117.244 96.592C117.192 96.6093 117.101 96.6223 116.971 96.631C116.564 96.6397 116.092 96.6483 115.554 96.657C115.017 96.6743 114.462 96.683 113.89 96.683C113.318 96.683 112.768 96.683 112.239 96.683C111.711 96.683 111.247 96.6743 110.848 96.657C110.45 96.6483 110.159 96.631 109.977 96.605L109.925 95.838ZM109.509 96.891C109.397 96.917 109.34 96.8693 109.34 96.748V94.395L109.262 93.836C109.236 93.7233 109.284 93.6713 109.405 93.68L110.458 93.784C110.571 93.7927 110.64 93.8533 110.666 93.966L110.692 94.044L110.38 94.343L110.393 96.488C110.393 96.6007 110.363 96.683 110.302 96.735C110.242 96.787 110.103 96.826 109.886 96.852L109.509 96.891ZM110.094 94.59V93.81H115.905V94.59H110.094ZM109.574 92.718C109.462 92.718 109.392 92.6617 109.366 92.549L109.197 92.003C109.189 91.9337 109.193 91.8903 109.21 91.873C109.228 91.847 109.267 91.834 109.327 91.834H115.996L115.918 92.614C114.783 92.614 113.708 92.6227 112.694 92.64C111.68 92.6573 110.64 92.6833 109.574 92.718ZM115.632 94.707C115.52 94.7157 115.463 94.6637 115.463 94.551L115.489 91.873H115.515L115.749 91.704C115.853 91.6347 115.949 91.626 116.035 91.678C116.122 91.7387 116.222 91.8123 116.334 91.899C116.447 91.977 116.547 92.0593 116.633 92.146C116.677 92.1893 116.698 92.2283 116.698 92.263C116.698 92.2977 116.677 92.3367 116.633 92.38L116.529 92.497L116.464 94.356C116.464 94.4687 116.408 94.5423 116.295 94.577C116.235 94.5943 116.165 94.6117 116.087 94.629C116.009 94.6463 115.931 94.6637 115.853 94.681C115.775 94.6897 115.702 94.6983 115.632 94.707ZM45.7509 109.976C45.1875 109.976 44.6805 109.876 44.2299 109.677C43.7792 109.469 43.4195 109.174 43.1509 108.793C42.8909 108.412 42.7609 107.965 42.7609 107.454C42.7609 106.934 42.8909 106.488 43.1509 106.115C43.4195 105.742 43.7792 105.456 44.2299 105.257C44.6805 105.058 45.1875 104.958 45.7509 104.958C46.2969 104.958 46.7952 105.058 47.2459 105.257C47.6965 105.456 48.0562 105.742 48.3249 106.115C48.5935 106.488 48.7279 106.934 48.7279 107.454C48.7279 107.965 48.5935 108.412 48.3249 108.793C48.0562 109.174 47.6965 109.469 47.2459 109.677C46.7952 109.876 46.2969 109.976 45.7509 109.976ZM45.7509 109.196C46.0975 109.196 46.4139 109.131 46.6999 109.001C46.9859 108.862 47.2155 108.663 47.3889 108.403C47.5622 108.143 47.6489 107.827 47.6489 107.454C47.6489 107.081 47.5622 106.769 47.3889 106.518C47.2155 106.258 46.9859 106.059 46.6999 105.92C46.4139 105.781 46.0975 105.712 45.7509 105.712C45.1962 105.712 44.7369 105.864 44.3729 106.167C44.0175 106.47 43.8399 106.899 43.8399 107.454C43.8399 108.009 44.0175 108.438 44.3729 108.741C44.7369 109.044 45.1962 109.196 45.7509 109.196ZM51.0549 110.379C50.9422 110.388 50.8859 110.336 50.8859 110.223V104.685L50.8729 104.321C50.8729 104.208 50.9292 104.152 51.0419 104.152H52.0689C52.1816 104.152 52.2206 104.204 52.1859 104.308C52.1512 104.377 52.1122 104.447 52.0689 104.516C52.0342 104.585 51.9952 104.655 51.9519 104.724V110.028C51.9519 110.141 51.9215 110.219 51.8609 110.262C51.8002 110.305 51.6615 110.336 51.4449 110.353L51.0549 110.379ZM51.2499 107.961C50.5652 107.952 49.9759 107.965 49.4819 108C48.9879 108.026 48.5502 108.061 48.1689 108.104C48.0649 108.13 47.9999 108.087 47.9739 107.974L47.8309 107.259C47.8135 107.155 47.8612 107.103 47.9739 107.103C48.2945 107.129 48.6195 107.146 48.9489 107.155C49.2782 107.164 49.6292 107.168 50.0019 107.168C50.3746 107.159 50.7905 107.146 51.2499 107.129V107.961ZM45.7509 113.174V112.329H51.4059V113.109L45.7509 113.174ZM45.3349 115.865C45.2222 115.874 45.1659 115.822 45.1659 115.709V111.419L45.1529 111.016C45.1442 110.903 45.1962 110.847 45.3089 110.847H46.2579C46.3705 110.847 46.4052 110.899 46.3619 111.003C46.3359 111.046 46.3099 111.09 46.2839 111.133C46.2665 111.176 46.2449 111.22 46.2189 111.263V115.501C46.2189 115.614 46.1885 115.692 46.1279 115.735C46.0672 115.787 45.9285 115.822 45.7119 115.839L45.3349 115.865ZM51.0419 115.865C50.9292 115.874 50.8729 115.822 50.8729 115.709V111.419L50.8469 111.016C50.8382 110.903 50.8902 110.847 51.0029 110.847H51.9779C52.0992 110.847 52.1296 110.899 52.0689 111.003C52.0429 111.046 52.0169 111.09 51.9909 111.133C51.9735 111.176 51.9519 111.22 51.9259 111.263V115.501C51.9259 115.614 51.8956 115.692 51.8349 115.735C51.7742 115.787 51.6356 115.822 51.4189 115.839L51.0419 115.865ZM45.7509 115.553V114.669H51.2889V115.553H45.7509ZM56.6408 110.327C57.0135 110.336 57.4512 110.34 57.9538 110.34C58.4652 110.331 58.9982 110.323 59.5528 110.314C60.1075 110.305 60.6492 110.292 61.1778 110.275C61.7065 110.258 62.1788 110.24 62.5948 110.223C63.0195 110.197 63.3445 110.171 63.5698 110.145L62.7118 110.535L63.5698 109.924C63.6652 109.855 63.7518 109.859 63.8298 109.937C63.9685 110.067 64.0855 110.21 64.1808 110.366C64.2848 110.513 64.3672 110.669 64.4278 110.834C64.4538 110.903 64.4625 110.955 64.4538 110.99C64.4452 111.025 64.4105 111.051 64.3498 111.068C64.2978 111.077 64.2068 111.085 64.0768 111.094C63.7302 111.103 63.3185 111.116 62.8418 111.133C62.3652 111.142 61.8582 111.15 61.3208 111.159C60.7835 111.168 60.2375 111.172 59.6828 111.172C59.1368 111.172 58.6038 111.172 58.0838 111.172C57.5725 111.163 57.1045 111.155 56.6798 111.146L56.6408 110.327ZM56.0168 111.419C55.9042 111.428 55.8478 111.376 55.8478 111.263V108.26L55.7438 107.649C55.7178 107.528 55.7655 107.48 55.8868 107.506L56.9658 107.675C57.0785 107.701 57.1522 107.762 57.1868 107.857L57.2128 107.961L56.9008 108.195V111.133C56.9008 111.237 56.8445 111.302 56.7318 111.328C56.5932 111.345 56.4632 111.363 56.3418 111.38C56.2205 111.397 56.1122 111.41 56.0168 111.419ZM56.4718 108.468V107.636H62.8808V108.468H56.4718ZM56.0298 106.05C55.9172 106.059 55.8435 106.007 55.8088 105.894L55.6268 105.218C55.6095 105.149 55.6095 105.105 55.6268 105.088C55.6442 105.062 55.6832 105.049 55.7438 105.049C56.9225 105.092 58.1185 105.118 59.3318 105.127C60.5538 105.127 61.7542 105.114 62.9328 105.088V105.933C62.3435 105.916 61.6892 105.911 60.9698 105.92C60.2505 105.92 59.4748 105.933 58.6428 105.959C57.8195 105.976 56.9485 106.007 56.0298 106.05ZM62.6078 108.559C62.4952 108.559 62.4388 108.503 62.4388 108.39L62.5688 105.127H62.6078L62.7768 104.945C62.8548 104.867 62.9458 104.85 63.0498 104.893C63.1365 104.936 63.2232 104.984 63.3098 105.036C63.3965 105.088 63.4832 105.144 63.5698 105.205C63.6565 105.257 63.7302 105.309 63.7908 105.361C63.8428 105.396 63.8688 105.43 63.8688 105.465C63.8688 105.5 63.8472 105.539 63.8038 105.582L63.6868 105.686L63.5048 108.195C63.4962 108.308 63.4398 108.386 63.3358 108.429C63.2752 108.446 63.2058 108.464 63.1278 108.481C63.0498 108.498 62.9632 108.516 62.8678 108.533C62.7812 108.542 62.6945 108.55 62.6078 108.559ZM54.5218 114.383C54.4092 114.383 54.3355 114.331 54.3008 114.227L54.1058 113.551C54.0712 113.438 54.1102 113.386 54.2228 113.395C54.6475 113.404 55.1328 113.417 55.6788 113.434C56.2335 113.443 56.8228 113.451 57.4468 113.46C58.0708 113.46 58.7078 113.46 59.3578 113.46C60.0078 113.46 60.6492 113.46 61.2818 113.46C61.9145 113.451 62.5125 113.443 63.0758 113.434C63.6478 113.425 64.1592 113.412 64.6098 113.395L64.0378 113.603L64.6748 113.096C64.7615 113.027 64.8395 113.04 64.9088 113.135C64.9955 113.274 65.0822 113.43 65.1688 113.603C65.2555 113.776 65.3335 113.95 65.4028 114.123C65.4288 114.192 65.4375 114.244 65.4288 114.279C65.4288 114.314 65.3985 114.335 65.3378 114.344C65.2858 114.353 65.1948 114.357 65.0648 114.357C64.3368 114.348 63.5742 114.344 62.7768 114.344C61.9882 114.335 61.1952 114.331 60.3978 114.331C59.6092 114.331 58.8465 114.335 58.1098 114.344C57.3818 114.344 56.7102 114.348 56.0948 114.357C55.4795 114.366 54.9552 114.374 54.5218 114.383ZM59.2018 113.941L59.1628 111.146L59.1368 110.561C59.1368 110.448 59.1932 110.392 59.3058 110.392H60.2808C60.3935 110.392 60.4325 110.444 60.3978 110.548C60.3892 110.583 60.3718 110.617 60.3458 110.652C60.3198 110.687 60.2982 110.721 60.2808 110.756L60.2418 113.941H59.2018ZM67.9728 106.297C67.8601 106.297 67.7908 106.241 67.7648 106.128L67.5698 105.465C67.5611 105.396 67.5654 105.352 67.5828 105.335C67.6001 105.309 67.6391 105.3 67.6998 105.309C68.2371 105.335 68.8134 105.352 69.4288 105.361C70.0528 105.37 70.6811 105.374 71.3138 105.374C71.9551 105.374 72.5748 105.37 73.1728 105.361C73.7794 105.344 74.3298 105.322 74.8238 105.296L74.3168 105.4L74.8888 105.14C74.9928 105.097 75.0794 105.118 75.1488 105.205C75.2268 105.309 75.3091 105.439 75.3958 105.595C75.4911 105.751 75.5778 105.898 75.6558 106.037C75.7164 106.132 75.7294 106.197 75.6948 106.232C75.6688 106.258 75.5561 106.271 75.3568 106.271C74.7761 106.262 74.1521 106.258 73.4848 106.258C72.8261 106.249 72.1631 106.249 71.4958 106.258C70.8284 106.258 70.1914 106.262 69.5848 106.271C68.9781 106.271 68.4408 106.28 67.9728 106.297ZM68.1808 111.068C68.0681 111.077 68.0118 111.025 68.0118 110.912V105.881H69.0778V110.743C69.0778 110.856 69.0258 110.929 68.9218 110.964C68.7744 110.999 68.6401 111.025 68.5188 111.042C68.4061 111.059 68.2934 111.068 68.1808 111.068ZM68.6748 109.898C68.8828 109.907 69.1991 109.911 69.6238 109.911C70.0484 109.902 70.5251 109.894 71.0538 109.885C71.5911 109.876 72.1284 109.863 72.6658 109.846C73.2118 109.82 73.7101 109.79 74.1608 109.755C74.6114 109.72 74.9581 109.677 75.2008 109.625L74.4338 110.106L75.2268 109.495C75.3134 109.426 75.3958 109.43 75.4738 109.508C75.5864 109.621 75.6861 109.751 75.7728 109.898C75.8681 110.037 75.9548 110.18 76.0328 110.327C76.0761 110.422 76.0804 110.487 76.0458 110.522C76.0198 110.557 75.9071 110.583 75.7078 110.6C75.3264 110.635 74.8714 110.665 74.3428 110.691C73.8228 110.708 73.2724 110.726 72.6918 110.743C72.1198 110.752 71.5651 110.76 71.0278 110.769C70.4904 110.769 70.0138 110.765 69.5978 110.756C69.1904 110.747 68.8958 110.739 68.7138 110.73L68.6748 109.898ZM66.6208 114.175C66.5081 114.175 66.4344 114.123 66.3998 114.019L66.2048 113.33C66.1874 113.269 66.1874 113.23 66.2048 113.213C66.2221 113.187 66.2611 113.174 66.3218 113.174C66.7464 113.191 67.2318 113.204 67.7778 113.213C68.3324 113.222 68.9218 113.23 69.5458 113.239C70.1698 113.248 70.8068 113.252 71.4568 113.252C72.1068 113.252 72.7481 113.252 73.3808 113.252C74.0134 113.243 74.6114 113.235 75.1748 113.226C75.7468 113.217 76.2581 113.204 76.7088 113.187L76.1368 113.395L76.7738 112.888C76.8258 112.845 76.8691 112.827 76.9038 112.836C76.9384 112.836 76.9731 112.866 77.0078 112.927C77.0944 113.066 77.1811 113.222 77.2678 113.395C77.3544 113.56 77.4324 113.729 77.5018 113.902C77.5278 113.971 77.5364 114.023 77.5278 114.058C77.5278 114.093 77.4974 114.114 77.4368 114.123C77.3848 114.132 77.2938 114.136 77.1638 114.136C76.4358 114.127 75.6731 114.123 74.8758 114.123C74.0871 114.114 73.2941 114.114 72.4968 114.123C71.7081 114.123 70.9454 114.127 70.2088 114.136C69.4721 114.136 68.7961 114.14 68.1808 114.149C67.5741 114.158 67.0541 114.166 66.6208 114.175ZM85.3113 113.265C84.748 113.265 84.2496 113.157 83.8163 112.94C83.3916 112.723 83.058 112.424 82.8153 112.043C82.5813 111.662 82.4643 111.22 82.4643 110.717C82.4643 110.214 82.5813 109.772 82.8153 109.391C83.058 109.001 83.3916 108.698 83.8163 108.481C84.2496 108.264 84.748 108.156 85.3113 108.156C85.8746 108.156 86.3686 108.264 86.7933 108.481C87.2266 108.698 87.5603 109.001 87.7943 109.391C88.037 109.772 88.1583 110.214 88.1583 110.717C88.1583 111.22 88.037 111.662 87.7943 112.043C87.5603 112.424 87.2266 112.723 86.7933 112.94C86.3686 113.157 85.8746 113.265 85.3113 113.265ZM85.3113 112.459C85.8486 112.459 86.282 112.299 86.6113 111.978C86.9406 111.649 87.1053 111.233 87.1053 110.73C87.1053 110.219 86.9363 109.803 86.5983 109.482C86.269 109.153 85.84 108.988 85.3113 108.988C84.7826 108.988 84.3536 109.153 84.0243 109.482C83.695 109.803 83.5303 110.219 83.5303 110.73C83.5303 111.233 83.695 111.649 84.0243 111.978C84.3536 112.299 84.7826 112.459 85.3113 112.459ZM84.7263 104.789C84.7263 104.72 84.7393 104.676 84.7653 104.659C84.7913 104.633 84.8346 104.616 84.8953 104.607L85.7013 104.568C85.7706 104.559 85.814 104.568 85.8313 104.594C85.8573 104.611 85.866 104.655 85.8573 104.724L85.7793 106.518L84.7913 106.531L84.7263 104.789ZM82.2173 107.376C82.1046 107.385 82.031 107.337 81.9963 107.233L81.8013 106.544C81.7666 106.44 81.8056 106.392 81.9183 106.401C82.239 106.41 82.616 106.418 83.0493 106.427C83.4913 106.436 83.955 106.44 84.4403 106.44C84.9256 106.44 85.4066 106.44 85.8833 106.44C86.36 106.44 86.802 106.436 87.2093 106.427C87.6253 106.418 87.9763 106.41 88.2623 106.401L87.5993 106.544L88.2623 106.167C88.3576 106.106 88.427 106.128 88.4703 106.232C88.5136 106.345 88.5613 106.479 88.6133 106.635C88.6653 106.791 88.713 106.956 88.7563 107.129C88.7736 107.198 88.778 107.25 88.7693 107.285C88.7606 107.32 88.726 107.341 88.6653 107.35C88.6133 107.359 88.5223 107.359 88.3923 107.35C87.9156 107.324 87.3956 107.307 86.8323 107.298C86.269 107.289 85.7013 107.285 85.1293 107.285C84.566 107.285 84.0286 107.294 83.5173 107.311C83.0146 107.328 82.5813 107.35 82.2173 107.376ZM90.0433 115.826C89.9306 115.835 89.8743 115.783 89.8743 115.67V104.789V104.321C89.8656 104.208 89.9176 104.152 90.0303 104.152H91.0573C91.17 104.152 91.209 104.204 91.1743 104.308C91.1396 104.377 91.1006 104.447 91.0573 104.516C91.0226 104.585 90.9836 104.655 90.9403 104.724V115.475C90.9403 115.588 90.91 115.666 90.8493 115.709C90.7886 115.752 90.65 115.783 90.4333 115.8L90.0433 115.826ZM90.4593 110.353V109.521H92.0583L92.4873 109.274C92.5913 109.213 92.665 109.235 92.7083 109.339C92.769 109.46 92.821 109.608 92.8643 109.781C92.9163 109.946 92.9553 110.102 92.9813 110.249C93.0073 110.362 92.964 110.418 92.8513 110.418L90.4593 110.353ZM94.4722 113.044C94.4202 113.087 94.3769 113.109 94.3422 113.109C94.3076 113.109 94.2642 113.092 94.2122 113.057L93.8222 112.758C93.7356 112.689 93.7312 112.615 93.8092 112.537C94.1646 112.182 94.4852 111.753 94.7712 111.25C95.0659 110.747 95.3172 110.201 95.5252 109.612C95.7332 109.014 95.8892 108.403 95.9932 107.779C96.0972 107.155 96.1319 106.553 96.0972 105.972L96.0582 105.53C96.0496 105.417 96.1016 105.365 96.2142 105.374L97.2932 105.413C97.4059 105.422 97.4406 105.478 97.3972 105.582L97.2412 105.998C97.2672 106.475 97.2412 106.973 97.1632 107.493C97.0852 108.004 96.9639 108.524 96.7992 109.053C96.6346 109.573 96.4309 110.08 96.1882 110.574C95.9542 111.059 95.6899 111.514 95.3952 111.939C95.1092 112.355 94.8016 112.723 94.4722 113.044ZM98.8012 112.654C98.6972 112.593 98.6366 112.511 98.6192 112.407C98.5326 112.13 98.4112 111.818 98.2552 111.471C98.1079 111.124 97.9432 110.773 97.7612 110.418C97.5792 110.063 97.3929 109.738 97.2022 109.443C97.0202 109.14 96.8512 108.897 96.6952 108.715L96.9422 107.961C97.1502 108.143 97.3712 108.381 97.6052 108.676C97.8479 108.971 98.0862 109.287 98.3202 109.625C98.5542 109.963 98.7666 110.301 98.9572 110.639C99.1566 110.968 99.3126 111.272 99.4252 111.549C99.5466 111.826 99.6072 112.043 99.6072 112.199C99.6072 112.398 99.5249 112.55 99.3602 112.654C99.2042 112.749 99.0179 112.749 98.8012 112.654ZM100.907 115.488C100.795 115.497 100.738 115.445 100.738 115.332V105.023L100.725 104.581C100.725 104.468 100.782 104.412 100.894 104.412H101.7C101.77 104.412 101.813 104.425 101.83 104.451C101.856 104.468 101.865 104.512 101.856 104.581C101.848 104.642 101.839 104.707 101.83 104.776C101.822 104.845 101.813 104.915 101.804 104.984V115.137C101.804 115.25 101.774 115.328 101.713 115.371C101.653 115.414 101.514 115.445 101.297 115.462L100.907 115.488ZM103.039 115.826C102.927 115.835 102.87 115.783 102.87 115.67V104.776L102.857 104.321C102.857 104.208 102.914 104.152 103.026 104.152H104.053C104.166 104.152 104.205 104.204 104.17 104.308C104.136 104.377 104.097 104.447 104.053 104.516C104.019 104.585 103.98 104.655 103.936 104.724V115.475C103.936 115.588 103.906 115.666 103.845 115.709C103.785 115.752 103.646 115.783 103.429 115.8L103.039 115.826ZM101.297 108.546C100.838 108.529 100.422 108.537 100.049 108.572C99.6852 108.598 99.3646 108.633 99.0872 108.676C98.9832 108.693 98.9182 108.646 98.8922 108.533L98.7622 107.857C98.7362 107.744 98.7796 107.692 98.8922 107.701C99.2736 107.727 99.6462 107.744 100.01 107.753C100.383 107.753 100.812 107.736 101.297 107.701V108.546ZM111.329 110.6C110.619 110.6 109.964 110.479 109.366 110.236C108.768 109.993 108.287 109.655 107.923 109.222C107.559 108.789 107.377 108.282 107.377 107.701C107.377 107.12 107.559 106.613 107.923 106.18C108.287 105.747 108.768 105.409 109.366 105.166C109.964 104.923 110.619 104.802 111.329 104.802C112.04 104.802 112.694 104.923 113.292 105.166C113.89 105.409 114.371 105.747 114.735 106.18C115.099 106.613 115.281 107.12 115.281 107.701C115.281 108.282 115.099 108.789 114.735 109.222C114.371 109.655 113.89 109.993 113.292 110.236C112.694 110.479 112.04 110.6 111.329 110.6ZM111.329 109.703C111.867 109.703 112.352 109.616 112.785 109.443C113.219 109.27 113.561 109.036 113.812 108.741C114.072 108.438 114.202 108.091 114.202 107.701C114.202 107.311 114.072 106.969 113.812 106.674C113.561 106.371 113.219 106.137 112.785 105.972C112.352 105.799 111.867 105.712 111.329 105.712C110.801 105.712 110.315 105.799 109.873 105.972C109.44 106.137 109.093 106.371 108.833 106.674C108.582 106.969 108.456 107.311 108.456 107.701C108.456 108.091 108.582 108.438 108.833 108.741C109.093 109.036 109.44 109.27 109.873 109.443C110.315 109.616 110.801 109.703 111.329 109.703ZM106.09 114.37C105.978 114.37 105.904 114.318 105.869 114.214L105.674 113.525C105.657 113.464 105.657 113.425 105.674 113.408C105.692 113.382 105.731 113.369 105.791 113.369C106.216 113.386 106.701 113.399 107.247 113.408C107.802 113.417 108.391 113.425 109.015 113.434C109.639 113.443 110.276 113.447 110.926 113.447C111.576 113.447 112.218 113.447 112.85 113.447C113.483 113.438 114.081 113.43 114.644 113.421C115.216 113.412 115.728 113.399 116.178 113.382L115.606 113.59L116.243 113.083C116.295 113.04 116.339 113.022 116.373 113.031C116.408 113.031 116.443 113.061 116.477 113.122C116.564 113.261 116.651 113.417 116.737 113.59C116.824 113.755 116.902 113.924 116.971 114.097C116.997 114.166 117.006 114.218 116.997 114.253C116.997 114.288 116.967 114.309 116.906 114.318C116.854 114.327 116.763 114.331 116.633 114.331C115.905 114.322 115.143 114.318 114.345 114.318C113.557 114.309 112.764 114.309 111.966 114.318C111.178 114.318 110.415 114.322 109.678 114.331C108.942 114.331 108.266 114.335 107.65 114.344C107.044 114.353 106.524 114.361 106.09 114.37ZM108.768 113.928L108.729 111.757L108.716 111.185C108.708 111.072 108.76 111.016 108.872 111.016H109.795C109.865 111.016 109.904 111.029 109.912 111.055C109.93 111.072 109.93 111.111 109.912 111.172C109.904 111.207 109.886 111.241 109.86 111.276C109.843 111.311 109.821 111.345 109.795 111.38L109.756 113.928H108.768ZM112.915 113.928L112.876 111.757L112.85 111.185C112.85 111.072 112.907 111.016 113.019 111.016H113.942C114.012 111.016 114.051 111.029 114.059 111.055C114.077 111.072 114.077 111.111 114.059 111.172C114.042 111.207 114.02 111.241 113.994 111.276C113.977 111.311 113.96 111.345 113.942 111.38L113.903 113.928H112.915Z" fill="#403230"/>
</svg>
